# xmcd CD database file
#
# Track frame offsets:
#	150
#	45086
#	96353
#	157768
#	171552
#	246835
#
# Disc length: 4076 seconds
#
# Revision: 0
# Processed by: cddbd v1.5.1PL0 Copyright (c) Steve Scherf et al.
# Submitted via: CDex 1.51
#
DISCID=400fea06
DTITLE=KVHW - 99-12-10 Disc2
DYEAR=1999
DGENRE=Jazz
TTITLE0=In Time
TTITLE1=City Of Tiny Lights
TTITLE2=Ring Around The Moon
TTITLE3=Virginia Bong Song-
TTITLE4=Five Before Funk
TTITLE5=Footprints
EXTD=YEAR: 1999
EXTT0=
EXTT1=
EXTT2=
EXTT3=
EXTT4=
EXTT5=
PLAYORDER=
